<svg width="17" height="14" viewBox="0 0 17 14" fill="none" xmlns="http://www.w3.org/2000/svg">
<path d="M5.69945 13.5001C11.7357 13.5001 15.0382 8.49786 15.0382 4.1613C15.0382 4.02068 15.0351 3.87693 15.0288 3.7363C15.6713 3.2717 16.2257 2.69623 16.666 2.03693C16.0677 2.30313 15.4324 2.47698 14.782 2.55255C15.4669 2.142 15.9797 1.49704 16.2254 0.737239C15.5811 1.1191 14.8764 1.38847 14.1416 1.5338C13.6466 1.00777 12.992 0.659472 12.2791 0.542762C11.5663 0.426051 10.8348 0.547428 10.1978 0.888125C9.56088 1.22882 9.05388 1.76986 8.75525 2.4276C8.45661 3.08534 8.38297 3.82314 8.5457 4.52693C7.24101 4.46145 5.96464 4.12253 4.79934 3.53213C3.63403 2.94172 2.60581 2.11302 1.78133 1.09974C1.36228 1.82222 1.23405 2.67716 1.4227 3.49079C1.61135 4.30442 2.10272 5.01569 2.79695 5.48005C2.27577 5.4635 1.766 5.32318 1.30977 5.07068V5.1113C1.3093 5.86949 1.57141 6.60445 2.05156 7.19124C2.5317 7.77803 3.20023 8.18044 3.94352 8.33005C3.46072 8.46215 2.954 8.48139 2.46258 8.3863C2.67232 9.03835 3.0804 9.60865 3.62986 10.0176C4.17933 10.4266 4.84276 10.6538 5.52758 10.6676C4.36497 11.5808 2.9288 12.0761 1.45039 12.0738C1.18821 12.0734 0.926282 12.0573 0.666016 12.0257C2.16792 12.9892 3.91504 13.501 5.69945 13.5001Z" fill="#6D6E76"/>
</svg>
